# xmcd
#
# Track frame offsets:
#	150
#	19532
#	37099
#	51780
#	70277
#	93796
#	110858
#	123812
#	141692
#	159708
#	184171
#	202620
#
# Disc length: 2920 seconds
# Revision: 0
# Processed by: cddbd v1.5.2PL0 Copyright (c) Steve Scherf et al.
# Submitted via: dBpowerAMP V12.0
#
DISCID=a70b660c
DTITLE=The Hoodoo Men - Found The Blues
DYEAR=2019
DGENRE=Blues
TTITLE0=7 Day 7 Nights
TTITLE1=Found The Blues
TTITLE2=Bluer Than Blue
TTITLE3=Catfish Jumpin'
TTITLE4=Overwhelms Me
TTITLE5=Hide And Seek
TTITLE6=Dry As A Bone
TTITLE7=So Much For One Man
TTITLE8=Blues Is Outta Sight
TTITLE9=Hoodoo Man
TTITLE10=Enough
TTITLE11=Right From The Start
EXTD=
EXTT0=
EXTT1=
EXTT2=
EXTT3=
EXTT4=
EXTT5=
EXTT6=
EXTT7=
EXTT8=
EXTT9=
EXTT10=
EXTT11=
PLAYORDER=
